<svg xmlns="http://www.w3.org/2000/svg" viewBox="0 0 80 80" width="80" height="80">
  <!-- On-Chain Verification Logo -->
  <defs>
    <!-- Glowing effect -->
    <filter id="glow" x="-20%" y="-20%" width="140%" height="140%">
      <feGaussianBlur stdDeviation="2" result="blur" />
      <feComposite in="SourceGraphic" in2="blur" operator="over" />
    </filter>
    
    <!-- Gradient for the logo -->
    <linearGradient id="logoGradient" x1="0%" y1="0%" x2="100%" y2="100%">
      <stop offset="0%" stop-color="#38bdf8" /> <!-- neon-blue -->
      <stop offset="50%" stop-color="#0284c7" /> <!-- primary-600 -->
      <stop offset="100%" stop-color="#22d3ee" /> <!-- neon-cyan -->
    </linearGradient>
  </defs>
  
  <!-- Background circle with glow -->
  <circle cx="40" cy="40" r="36" fill="#1f2937" stroke="url(#logoGradient)" stroke-width="2" filter="url(#glow)" />
  
  <!-- Blockchain representation -->
  <polygon points="40,20 55,30 55,50 40,60 25,50 25,30" fill="none" stroke="url(#logoGradient)" stroke-width="2" filter="url(#glow)" />
  <polygon points="40,25 50,32 50,47 40,55 30,47 30,32" fill="none" stroke="url(#logoGradient)" stroke-width="1" />
  
  <!-- Connection lines -->
  <line x1="40" y1="20" x2="40" y2="25" stroke="url(#logoGradient)" stroke-width="1" />
  <line x1="55" y1="30" x2="50" y2="32" stroke="url(#logoGradient)" stroke-width="1" />
  <line x1="55" y1="50" x2="50" y2="47" stroke="url(#logoGradient)" stroke-width="1" />
  <line x1="40" y1="60" x2="40" y2="55" stroke="url(#logoGradient)" stroke-width="1" />
  <line x1="25" y1="50" x2="30" y2="47" stroke="url(#logoGradient)" stroke-width="1" />
  <line x1="25" y1="30" x2="30" y2="32" stroke="url(#logoGradient)" stroke-width="1" />
  
  <!-- Checkmark in the center -->
  <path d="M35 40L38 43L45 36" stroke="url(#logoGradient)" stroke-width="2" stroke-linecap="round" stroke-linejoin="round" filter="url(#glow)" />
  
  <!-- Animated pulse around the checkmark -->
  <circle cx="40" cy="40" r="10" fill="none" stroke="url(#logoGradient)" stroke-width="0.5" opacity="0.5">
    <animate attributeName="r" values="10;15;10" dur="3s" repeatCount="indefinite" />
    <animate attributeName="opacity" values="0.5;0;0.5" dur="3s" repeatCount="indefinite" />
  </circle>
  
  <!-- Data nodes -->
  <circle cx="40" cy="20" r="2" fill="url(#logoGradient)" />
  <circle cx="55" cy="30" r="2" fill="url(#logoGradient)" />
  <circle cx="55" cy="50" r="2" fill="url(#logoGradient)" />
  <circle cx="40" cy="60" r="2" fill="url(#logoGradient)" />
  <circle cx="25" cy="50" r="2" fill="url(#logoGradient)" />
  <circle cx="25" cy="30" r="2" fill="url(#logoGradient)" />
</svg>