<svg xmlns="http://www.w3.org/2000/svg" viewBox="0 0 80 80" width="80" height="80">
  <!-- Prediction Markets Logo -->
  <defs>
    <!-- Glowing effect -->
    <filter id="glow" x="-20%" y="-20%" width="140%" height="140%">
      <feGaussianBlur stdDeviation="2" result="blur" />
      <feComposite in="SourceGraphic" in2="blur" operator="over" />
    </filter>
    
    <!-- Gradient for the logo -->
    <linearGradient id="logoGradient" x1="0%" y1="0%" x2="100%" y2="100%">
      <stop offset="0%" stop-color="#38bdf8" /> <!-- neon-blue -->
      <stop offset="50%" stop-color="#0284c7" /> <!-- primary-600 -->
      <stop offset="100%" stop-color="#22d3ee" /> <!-- neon-cyan -->
    </linearGradient>
  </defs>
  
  <!-- Background circle with glow -->
  <circle cx="40" cy="40" r="36" fill="#1f2937" stroke="url(#logoGradient)" stroke-width="2" filter="url(#glow)" />
  
  <!-- Chart axes -->
  <path d="M20 55H60M20 55V25" stroke="url(#logoGradient)" stroke-width="2" stroke-linecap="round" />
  
  <!-- Chart bars -->
  <rect x="25" y="45" width="5" height="10" fill="url(#logoGradient)" filter="url(#glow)" />
  <rect x="35" y="35" width="5" height="20" fill="url(#logoGradient)" filter="url(#glow)" />
  <rect x="45" y="30" width="5" height="25" fill="url(#logoGradient)" filter="url(#glow)" />
  <rect x="55" y="40" width="5" height="15" fill="url(#logoGradient)" filter="url(#glow)" />
  
  <!-- Prediction line -->
  <path d="M20 45C25 42 35 25 45 25C55 25 60 35 60 35" stroke="url(#logoGradient)" stroke-width="1.5" stroke-dasharray="2,1" filter="url(#glow)" fill="none" />
  
  <!-- Forecast arrow -->
  <path d="M60 35L65 30M60 35L55 30" stroke="url(#logoGradient)" stroke-width="1.5" stroke-linecap="round" />
  
  <!-- Data points with pulse animation -->
  <circle cx="25" cy="45" r="2" fill="url(#logoGradient)">
    <animate attributeName="opacity" values="1;0.5;1" dur="2s" repeatCount="indefinite" />
  </circle>
  <circle cx="35" cy="35" r="2" fill="url(#logoGradient)">
    <animate attributeName="opacity" values="1;0.5;1" dur="2s" repeatCount="indefinite" begin="0.5s" />
  </circle>
  <circle cx="45" cy="30" r="2" fill="url(#logoGradient)">
    <animate attributeName="opacity" values="1;0.5;1" dur="2s" repeatCount="indefinite" begin="1s" />
  </circle>
  <circle cx="55" cy="40" r="2" fill="url(#logoGradient)">
    <animate attributeName="opacity" values="1;0.5;1" dur="2s" repeatCount="indefinite" begin="1.5s" />
  </circle>
</svg>