<svg xmlns="http://www.w3.org/2000/svg" viewBox="0 0 80 80" width="80" height="80">
  <!-- Share Knowledge Logo -->
  <defs>
    <!-- Glowing effect -->
    <filter id="glow" x="-20%" y="-20%" width="140%" height="140%">
      <feGaussianBlur stdDeviation="2" result="blur" />
      <feComposite in="SourceGraphic" in2="blur" operator="over" />
    </filter>
    
    <!-- Gradient for the logo -->
    <linearGradient id="logoGradient" x1="0%" y1="0%" x2="100%" y2="100%">
      <stop offset="0%" stop-color="#38bdf8" /> <!-- neon-blue -->
      <stop offset="50%" stop-color="#0284c7" /> <!-- primary-600 -->
      <stop offset="100%" stop-color="#22d3ee" /> <!-- neon-cyan -->
    </linearGradient>
  </defs>
  
  <!-- Background circle with glow -->
  <circle cx="40" cy="40" r="36" fill="#1f2937" stroke="url(#logoGradient)" stroke-width="2" filter="url(#glow)" />
  
  <!-- Open book -->
  <path d="M20 30V55C20 55 30 50 40 55C50 50 60 55 60 55V30C60 30 50 25 40 30C30 25 20 30 20 30Z" fill="none" stroke="url(#logoGradient)" stroke-width="2" filter="url(#glow)" />
  <path d="M40 30V55" stroke="url(#logoGradient)" stroke-width="2" />
  
  <!-- Page lines -->
  <path d="M25 35H35M25 40H35M25 45H35" stroke="url(#logoGradient)" stroke-width="1" stroke-linecap="round" />
  <path d="M45 35H55M45 40H55M45 45H55" stroke="url(#logoGradient)" stroke-width="1" stroke-linecap="round" />
  
  <!-- Share icon above the book -->
  <circle cx="40" cy="20" r="5" fill="url(#logoGradient)" />
  <path d="M40 25V15M35 18L40 15L45 18" stroke="#1f2937" stroke-width="1.5" stroke-linecap="round" stroke-linejoin="round" />
  
  <!-- Connection lines representing sharing -->
  <path d="M30 22L35 20M50 22L45 20" stroke="url(#logoGradient)" stroke-width="1" stroke-linecap="round" stroke-dasharray="1,1" />
  
  <!-- Small glowing dots -->
  <circle cx="30" cy="22" r="2" fill="url(#logoGradient)" filter="url(#glow)" />
  <circle cx="50" cy="22" r="2" fill="url(#logoGradient)" filter="url(#glow)" />
</svg>